<svg xmlns="http://www.w3.org/2000/svg" width="384.926" height="354.915" viewBox="0 0 384.926 354.915">
  <g id="Group_7" data-name="Group 7" transform="translate(-350 -414)">
    <g id="humaaans_standing-5" data-name="humaaans/standing-5" transform="translate(350 433.952)">
      <g id="humaaan-10" transform="translate(0 0)">
        <g id="Head_Front_Short-1" data-name="Head/Front/Short-1" transform="translate(97.911 0)">
          <g id="Head" transform="translate(0.093 3.026)">
            <path id="Path_5" data-name="Path 5" d="M6.877,28.706c-3.835-4.5-6.431-10.019-6-16.2C2.129-5.306,26.924-1.388,31.747,7.6S36,39.4,29.764,41c-2.486.641-7.782-.929-13.171-4.177l3.383,23.934H0Z" transform="translate(0 0)" fill="#b28b67" fill-rule="evenodd"/>
          </g>
          <path id="Hair" d="M79.23,40.47c-2.711,1.516-4.64,4.358-6.962,8.084a4.995,4.995,0,0,0-5.315,8.222c-1.156,1.631-2.451,3.335-3.934,5.093-5.538-3.322-9.656-13.005-4.369-22.353,4.549-18.724,30.327-7.1,35.286-10.26C95.02,36.051,91.524,41.529,79.23,40.47Z" transform="translate(-56.2 -28.538)" fill="#191847" fill-rule="evenodd"/>
        </g>
        <g id="Bottom_Standing_Baggy-Pants" data-name="Bottom/Standing/Baggy-Pants" transform="translate(0 136.041)">
          <path id="Leg" d="M139.748,0,180.6,103.4,208,190.807h10.819L176.93,0Z" transform="translate(-42.549)" fill="#997659" fill-rule="evenodd"/>
          <path id="Leg-2" data-name="Leg" d="M109.764,0c-.435,36.334-6.779,85.251-7.792,87.516q-1.014,2.265-69.979,57.6l7.452,7.974q81.372-47.446,85.139-53.774c3.765-6.328,16.025-64.56,25.867-99.32Z" transform="translate(-20.79)" fill="#b28b67" fill-rule="evenodd"/>
          <g id="Accessories_Shoe_Flat-Sneaker" data-name="Accessories/Shoe/Flat-Sneaker" transform="matrix(0.643, 0.766, -0.766, 0.643, 13.178, 138.14)">
            <path id="shoe" d="M1.4,5.052A17.871,17.871,0,0,0,0,10.632,41.763,41.763,0,0,0,.75,17.2H47.694q1.83-6.049-2.113-6.532T39.031,9.8L17.212.072a.832.832,0,0,0-1.1.421L16.1.515l-1.4,3.4A14.968,14.968,0,0,1,8.77,5.62a13.432,13.432,0,0,1-5.121-1.5h0a1.665,1.665,0,0,0-2.207.82Q1.418,5,1.4,5.052Z" transform="translate(0 0)" fill="#e4e4e4" fill-rule="evenodd"/>
          </g>
          <g id="Accessories_Shoe_Flat-Sneaker-2" data-name="Accessories/Shoe/Flat-Sneaker" transform="translate(159.623 181.72)">
            <path id="shoe-2" data-name="shoe" d="M2.44,25.213a17.871,17.871,0,0,0-1.4,5.58,41.763,41.763,0,0,0,.75,6.57H48.737q1.83-6.049-2.113-6.532t-6.55-.871L18.255,20.234a.832.832,0,0,0-1.1.421l-.009.022-1.4,3.4a14.968,14.968,0,0,1-5.931,1.7,13.432,13.432,0,0,1-5.121-1.5h0a1.665,1.665,0,0,0-2.207.82Q2.46,25.158,2.44,25.213Z" transform="translate(-1.043 -20.161)" fill="#e4e4e4" fill-rule="evenodd"/>
          </g>
          <path id="Pant" d="M165.876,181.8l51.44-5.583L179.193,0H133.119Z" transform="translate(-41.21 0)" fill="#69a1ac" fill-rule="evenodd"/>
          <path id="Pant-2" data-name="Pant" d="M45.324,132.255l33.742,39.938q53.31-58.223,62.159-75.981T157.136,0h-51.87q-3.857,69.02-5.2,72.232T45.324,132.255Z" transform="translate(-23.482)" fill="#89c5cc" fill-rule="evenodd"/>
        </g>
        <g id="Body_Turtle-Neck" data-name="Body/Turtle-Neck" transform="translate(19.173 42.593)">
          <path id="Skin" d="M177.1,93.964l24.46,23.709a74.248,74.248,0,0,1,17.495,9.991c1.022,1.226,2.135,3.573-2.674,2.523s-9.917-1.941-10.821-.386,1.76,3.935.089,5.97q-1.671,2.034-11.238-12.939l-25.435-14.9ZM57.488,72.507l18.908.07q-21.6,69.535-22.933,72.815c-2,4.919,2.23,12.412,4.038,16.439-5.889,2.618-5.261-7.078-12.69-3.644C38.03,161.322,32.872,167,25.038,162.2c-.963-.591-2.019-2.813.532-4.551,6.353-4.329,15.509-11.9,16.746-14.4Q44.846,138.149,57.488,72.507Z" transform="translate(-23.979 -10.577)" fill="#b28b67" fill-rule="evenodd"/>
          <path id="Clothes-Back" d="M0,1.918,7.327,0C22.645,40.128,85.3,62.912,90.345,77.973c1.849,5.523-1.988,8.733.273,10.266l-9.053,7.878c-1.8-1.755-4.993,2.022-12.5.232S4.263,50.647,0,1.918Z" transform="translate(91.292 6.728) rotate(5)" fill="#db2721" fill-rule="evenodd"/>
          <path id="Clothes-Front" d="M131.606,9.007c-.874,54.718,30.96,68.67,23.871,90.614-5.853,18.118-61.876,37.595-71.571,19.835C79.981,112.267,78.2,103.572,78,94.12q-3.717,10.893-5.879,18.756c-2.487,9.042-12.127,10.48-12.127,13.963l-12.7-3.484c.861-4.732-5.126-7.037-3.521-17.61Q54.561,34.687,101.754,2.73L102.089-2a3.33,3.33,0,0,1,3.552-3.087v0l23.506,1.63A3.33,3.33,0,0,1,132.238.095a0,0,0,0,0,0,0Z" transform="translate(-27.92 5.092)" fill="#ff4133" fill-rule="evenodd"/>
        </g>
      </g>
    </g>
    <g id="humaaans_standing-8" data-name="humaaans/standing-8" transform="translate(512.807 414)">
      <g id="A-Human_Standing" data-name="A-Human/Standing" transform="translate(0 0)">
        <g id="Head_Front_Long" data-name="Head/Front/Long" transform="translate(95.225)">
          <path id="Hair-Back" d="M86.723,41.6c2.751,10.137,6.336,32.923,2.678,36.5H66.257q0-.062-.007-.123A17.161,17.161,0,0,1,51,60.918V44.159A17.159,17.159,0,0,1,68.159,27h1.6A17.163,17.163,0,0,1,86.723,41.6Z" transform="translate(-39.827 -27)" fill="#191847" fill-rule="evenodd"/>
          <g id="Head-2" data-name="Head" transform="translate(13.567 3.192)">
            <path id="Path_6" data-name="Path 6" d="M6.594,27.526C2.916,23.209.427,17.919.843,11.991c1.2-17.079,24.973-13.322,29.6-4.7s4.075,30.486-1.9,32.026c-2.384.614-7.461-.891-12.629-4.006l3.244,22.949H0Z" transform="translate(0 0)" fill="#d4a181" fill-rule="evenodd"/>
          </g>
          <path id="Hair-Front" d="M62.339,55.035c.882,9.48.529,20.305-2.1,22.875H37.094C35.8,55.5,48.267,64.181,48.267,43.086c.777-.759,1.511-1.511,2.238-2.159l-.026-.62Q56.49,28,65.732,28c9.242,0,12.159,4.3,14.643,7.951-1.857,6.373-9.065,7.318-15.469,11.29a4.389,4.389,0,1,0-2.766,7.8Q62.24,55.039,62.339,55.035Z" transform="translate(-37 -27.202)" fill="#191847" fill-rule="evenodd"/>
        </g>
        <g id="Bottom_Standing_Skirt" data-name="Bottom/Standing/Skirt" transform="translate(0 123.831)">
          <path id="Skirt-Shadow" d="M97.408,94.9q28.718,8.032,49.554,8.033a66.663,66.663,0,0,0,38.707-12.37q-28.1-8.245-46.288-8.245T97.408,94.9Z" transform="translate(-19.415 -12.762)" fill="#1f28cf" fill-rule="evenodd"/>
          <path id="Leg-3" data-name="Leg" d="M168.1,94.032a4.526,4.526,0,0,1-.464-.906C165.074,86.358,124.084,13.348,120,0h46.149c3.105,10.149,17.08,73.838,19.046,86.545C191.4,106.588,204.177,171.5,205.808,176c1.716,4.731-7.938,9.659-10.511,3.844-4.093-9.254-13.847-34.861-18.19-50.5C173.037,114.69,169.722,101.5,168.1,94.032Z" transform="translate(-23.977 3.861)" fill="#ba8b72" fill-rule="evenodd"/>
          <path id="Leg-4" data-name="Leg" d="M108.154,102.947c-18.74,4.736-87.288,13.3-91.992,14.642-4.839,1.381-9.082-8.593-3.1-10.753C22.579,103.4,48.8,95.455,64.7,92.213,77.492,89.605,89.162,87.478,97,86.232,96.333,64.224,93.3,11.407,95.288,0h40.834c-1.907,10.939-18.029,90.755-21.024,98.745C114.146,101.6,111.308,102.857,108.154,102.947Z" transform="translate(-1.79 3.861)" fill="#d4a181" fill-rule="evenodd"/>
          <g id="Accessories_Shoe_Flat-Sneaker-3" data-name="Accessories/Shoe/Flat-Sneaker" transform="translate(16.244 105.881) rotate(80)">
            <path id="shoe-3" data-name="shoe" d="M1.339,4.844A17.136,17.136,0,0,0,0,10.194a40.045,40.045,0,0,0,.719,6.3H45.732q1.754-5.8-2.026-6.263T37.426,9.4L16.5.069a.8.8,0,0,0-1.054.4l-.009.021L14.1,3.756A14.352,14.352,0,0,1,8.409,5.389,12.88,12.88,0,0,1,3.5,3.953h0a1.6,1.6,0,0,0-2.116.786Q1.359,4.791,1.339,4.844Z" transform="translate(0 0)" fill="#e4e4e4" fill-rule="evenodd"/>
          </g>
          <g id="Accessories_Shoe_Flat-Sneaker-4" data-name="Accessories/Shoe/Flat-Sneaker" transform="translate(167.052 178.106)">
            <path id="shoe-4" data-name="shoe" d="M2.339,24.176A17.136,17.136,0,0,0,1,29.526a40.045,40.045,0,0,0,.719,6.3H46.732q1.754-5.8-2.026-6.263t-6.281-.835L17.5,19.4a.8.8,0,0,0-1.054.4l-.009.021L15.1,23.088a14.352,14.352,0,0,1-5.687,1.633A12.88,12.88,0,0,1,4.5,23.285h0a1.6,1.6,0,0,0-2.116.786Q2.359,24.123,2.339,24.176Z" transform="translate(-1 -19.332)" fill="#e4e4e4" fill-rule="evenodd"/>
          </g>
          <path id="Skirt" d="M112.283-.977q26.991-7.722,51.077,0c5.587,25.489,19.161,35.6,21.548,74.683-27.135,13.483-60.654-9.616-88.586,3.533C88.341,58.848,99.514,14.557,112.283-.977Z" transform="translate(-18.654 4.838)" fill="#2b44ff" fill-rule="evenodd"/>
        </g>
        <g id="Body_Long-Sleeve" data-name="Body/Long-Sleeve" transform="translate(32.307 43.894)">
          <path id="Skin-2" data-name="Skin" d="M156.9,62.421l31.51-4.3A68.684,68.684,0,0,1,205.8,51c1.489-.043,3.859.5.329,3.442s-7.113,6.2-6.484,7.77,3.912.986,4.456,3.4q.543,2.416-15.987.785L162.551,76.538ZM57.912,69.715l17.476.066q-28.744,64.685-29.975,67.736c-1.847,4.576,2.061,11.547,3.732,15.292-5.443,2.436-4.863-6.584-11.729-3.39-6.267,2.916-11.034,8.2-18.275,3.731-.89-.549-1.866-2.617.491-4.233,5.872-4.026,14.334-11.073,15.477-13.393Q37.449,130.778,57.912,69.715Z" transform="translate(-18.163 -10.298)" fill="#b28b67" fill-rule="evenodd"/>
          <path id="Clothes-Back-2" data-name="Clothes-Back" d="M0,.284,13.71,0c6.014,30.078,25.978,47.662,66.35,37.585l8.861,38.636C51.089,84.514,16.19,72.131,5.684,31.254,2.964,20.672.58,9.621,0,.284Z" transform="translate(87.643 3.707) rotate(5)" fill="#afb9c5" fill-rule="evenodd"/>
          <path id="Clothes" d="M103.925.013l20.732,4.748c0,35.657,11.358,58.407,17.184,84.624H85.85c-.789,9.059-1.273,18.37-1.526,27.933H42.4Q56.652,41.5,102.556,0h1.358Z" transform="translate(-23.057)" fill="#c5cfd6" fill-rule="evenodd"/>
          <path id="Shade" d="M105.677,48.259q-2.164,33.329,2.546,50.87H96.844A274.2,274.2,0,0,1,105.677,48.259Z" transform="translate(-34.05 -9.745)" fill="rgba(0,0,0,0.1)" fill-rule="evenodd"/>
        </g>
      </g>
    </g>
  </g>
</svg>
