<svg xmlns="http://www.w3.org/2000/svg" width="294.542" height="450.406" viewBox="0 0 294.542 450.406">
  <g id="humaaans_standing-19" data-name="humaaans/standing-19" transform="translate(-46.586 -43.114)">
    <g id="humaaan-3" transform="translate(46.586 43.114)">
      <g id="Head_Front_Short-Beard" data-name="Head/Front/Short-Beard" transform="matrix(0.966, -0.259, 0.259, 0.966, 96.612, 12.573)">
        <g id="Head" transform="translate(0.125 2.199)">
          <path id="Path_4" data-name="Path 4" d="M9.259,38.308C4.1,32.3.6,24.938,1.184,16.689,2.867-7.081,36.25-1.852,42.744,10.145s5.722,42.427-2.67,44.571c-3.347.855-10.477-1.24-17.733-5.575L26.895,81.08H0Z" transform="translate(0 0)" fill="#b28b67" fill-rule="evenodd"/>
        </g>
        <path id="Hair" d="M23.809,21.513q1.544,21.321,8.17,21.321c6.626,0,12.248-4.169,15.155-4.169,2.12,0,1.646,2.629.241,4.578-1.159,1.608-6.8,3.158-6.8,5.651s4.46.564,4.46,2.043c0,2.446.783,7.044-3.5,7.044-4.334,0-16.76-1.565-18.89-7.941q-2.061-6.172-2.666-25.578a6.839,6.839,0,0,0-.8-.047,6.694,6.694,0,0,0-6.724,6.664,6.616,6.616,0,0,0,2.025,4.767c-1.556,2.177-3.3,4.45-5.3,6.8C1.674,38.178-3.9,25.112,3.442,12.56,5.47,6.411,10.062,3.127,15.485,1.6a19.667,19.667,0,0,1,12.8-.935c7.546.642,14.284,2.922,16.195,4.277,0,7.081-1.385,9.182-13.208,9C28.369,15.461,26.135,18.08,23.809,21.513Z" transform="translate(0 0)" fill="#191847" fill-rule="evenodd"/>
      </g>
      <g id="Bottom_Standing_Baggy-Pants" data-name="Bottom/Standing/Baggy-Pants" transform="translate(0 183.442)">
        <path id="Leg" d="M145.152,0l55,138.672,36.89,117.236h14.567L195.214,0Z" transform="translate(-14.218)" fill="#997659" fill-rule="evenodd"/>
        <path id="Leg-2" data-name="Leg" d="M137.939,0c-.586,48.73-9.127,114.337-10.492,117.376q-1.364,3.037-94.218,77.256l10.033,10.7q109.559-63.635,114.629-72.121C162.961,124.72,179.466,46.619,192.719,0Z" transform="translate(-18.08)" fill="#b28b67" fill-rule="evenodd"/>
        <g id="Accessories_Shoe_Flat-Sneaker" data-name="Accessories/Shoe/Flat-Sneaker" transform="matrix(0.643, 0.766, -0.766, 0.643, 17.742, 185.228)">
          <path id="shoe" d="M1.881,6.8A24.061,24.061,0,0,0,0,14.314a56.231,56.231,0,0,0,1.01,8.847h63.2q2.464-8.145-2.844-8.794t-8.819-1.173L23.174.1a1.121,1.121,0,0,0-1.48.567l-.013.029L19.793,5.274Q14.88,7.567,11.807,7.567A18.085,18.085,0,0,1,4.913,5.551h0a2.241,2.241,0,0,0-2.971,1.1Q1.909,6.727,1.881,6.8Z" transform="translate(0 0)" fill="#e4e4e4" fill-rule="evenodd"/>
        </g>
        <g id="Accessories_Shoe_Flat-Sneaker-2" data-name="Accessories/Shoe/Flat-Sneaker" transform="translate(214.98 243.803)">
          <path id="shoe-2" data-name="shoe" d="M2.964,27.743a24.061,24.061,0,0,0-1.881,7.512A56.231,56.231,0,0,0,2.093,44.1H65.3q2.464-8.145-2.844-8.794t-8.819-1.173l-29.377-13.1a1.121,1.121,0,0,0-1.48.567l-.013.029-1.888,4.581q-4.914,2.293-7.986,2.293A18.085,18.085,0,0,1,6,26.492H6a2.241,2.241,0,0,0-2.971,1.1Q2.992,27.668,2.964,27.743Z" transform="translate(-1.083 -20.941)" fill="#e4e4e4" fill-rule="evenodd"/>
        </g>
        <path id="Pant" d="M182.369,243.832l69.258-7.488L200.3,0H138.267Z" transform="translate(-14.455 0)" fill="#69a1ac" fill-rule="evenodd"/>
        <path id="Pant-2" data-name="Pant" d="M47.077,177.377l45.429,53.566q71.774-78.09,83.69-101.906T197.618,0H127.781q-5.194,92.569-7,96.876T47.077,177.377Z" transform="translate(-17.603)" fill="#89c5cc" fill-rule="evenodd"/>
      </g>
      <g id="Body_Hoodie" data-name="Body/Hoodie" transform="translate(25.34 83.086) rotate(-10)">
        <path id="Skin" d="M175.508,0l35.745,26.12q14.542,3.9,24.3,9.716c1.537,1.392,3.394,4.215-2.978,3.726s-13.1-.715-13.976,1.448,2.977,4.748,1.2,7.667Q218.019,51.6,203,34.043l-35.4-14.606ZM38.263.9,61.681.994Q39.992,70.665,38.263,74.927c-2.593,6.4,2.894,16.133,5.241,21.367-7.643,3.4-6.828-9.2-16.469-4.736-8.8,4.074-15.494,11.455-25.661,5.213-1.25-.768-2.62-3.657.69-5.915C10.309,85.23,22.191,75.383,23.8,72.142Q27.08,65.513,38.263.9Z" transform="translate(0 106.741)" fill="#b28b67" fill-rule="evenodd"/>
        <path id="Coat-Back" d="M0,2.492,9.509,0c38.51,27.654,58.4,85.513,105.038,113l-9.426,13.958C28.139,124.243,2.949,53.749,0,2.492Z" transform="translate(105.029 7.381) rotate(5)" fill="#e87613" fill-rule="evenodd"/>
        <path id="Shirt" d="M0,127.12H85.739c3.918,0,3.18-5.629,2.613-8.47C81.816,85.866,56.3,50.526,56.3,3.859L31.57,0C11.114,32.737,4.04,73.043,0,127.12Z" transform="translate(62.572 3.918)" fill="#dde3e9" fill-rule="evenodd"/>
        <path id="Coat-Front" d="M40.06,36.1a14.126,14.126,0,0,1-8.533-7.189C22.487,12.678,25.752,3.742,35.412.8S53.687,3.918,69.078,3.918a15.564,15.564,0,0,1,2.3.157l7.742.44Q112.44,116.882,97.5,154.455H30.016a228.474,228.474,0,0,1-11.478,23.416H.149Q-2.446,94.352,40.06,36.1Z" transform="translate(23.201 0)" fill="#ff9b21" fill-rule="evenodd"/>
        <path id="Shade" d="M14.7,0q3.183,26.506,10.348,38.473H0Q7,22.24,14.7,0Z" transform="translate(53.217 115.981)" fill="rgba(0,0,0,0.1)" fill-rule="evenodd"/>
      </g>
    </g>
  </g>
</svg>
