<svg id="humaaans_standing-23" data-name="humaaans/standing-23" xmlns="http://www.w3.org/2000/svg" width="209.061" height="347.908" viewBox="0 0 209.061 347.908">
  <g id="humaaan-8" transform="translate(0 0)">
    <g id="Head_Front_Curly" data-name="Head/Front/Curly" transform="translate(71.039)">
      <g id="Head" transform="translate(5.914 14.364)">
        <path id="Path_1" data-name="Path 1" d="M28.506,29.142c3.893-4.57,6.529-10.171,6.088-16.447C33.326-5.387,8.155-1.409,3.259,7.718S-1.056,39.994,5.272,41.625c2.524.651,7.9-.943,13.371-4.241l-3.434,24.3H35.488Z" transform="translate(0 0)" fill="#b28b67" fill-rule="evenodd"/>
      </g>
      <path id="hair" d="M31.476,24.03a4.386,4.386,0,0,1,3.071-3.115,4.049,4.049,0,0,1,1.13-.112c.136.005.174.045.238-.051a1.26,1.26,0,0,0,.067-.326,6.093,6.093,0,0,1,.23-.761,6.207,6.207,0,0,1,1.5-2.228,7.545,7.545,0,0,1,4.532-2.144,6.607,6.607,0,0,1,2.724.372,10.8,10.8,0,0,1,1.323.566c.129.065.548.382.677.361s.431-.378.547-.467a8.009,8.009,0,0,1,5-1.523c2.021.015,3.967.116,5.653,1.348a11.309,11.309,0,0,1,1.02.847c.17.158.335.323.493.494q.142.155.276.317c.151.184.127.244.338.116a4.2,4.2,0,0,1,2.7-.607,6.041,6.041,0,0,1,1.629.46c.177.076.586.377.775.38s.591-.277.783-.348a6.422,6.422,0,0,1,3.255-.3,8.406,8.406,0,0,1,3.192,1.255,4.29,4.29,0,0,1,1.183,1.075c.139.192.265.4.422.573.092.1.275.211.325.343a7.009,7.009,0,0,1,1.353-.6,3.332,3.332,0,0,1,1.9.072,7.568,7.568,0,0,1,3,2.132,8.522,8.522,0,0,1,1.111,1.492q.227.385.416.789a2.933,2.933,0,0,0,.183.411c.1.151.174.154.362.22a5.855,5.855,0,0,1,2.494,1.67,5.747,5.747,0,0,1,1.291,2.737,1.4,1.4,0,0,0,.052.337c.048.044.24.025.313.033a6.577,6.577,0,0,1,.749.132,6.186,6.186,0,0,1,1.318.474,6.884,6.884,0,0,1,3.375,4.03,8.176,8.176,0,0,1-.128,5.6,5.469,5.469,0,0,1-.416.82c-.1.16-.132.16-.067.328.072.187.2.368.289.55a7.9,7.9,0,0,1,.6,1.871,8.777,8.777,0,0,1,.1,3.235,4.671,4.671,0,0,1-.5,1.419,4.079,4.079,0,0,1-.438.635c-.086.1-.177.2-.273.294a1.827,1.827,0,0,0-.173.16c-.113.146-.137.026-.079.24a9.6,9.6,0,0,0,.381.885c.117.3.223.6.319.911a13.445,13.445,0,0,1,.465,1.9,5.962,5.962,0,0,1-.421,3.688A3.69,3.69,0,0,1,91.1,58.263a3.878,3.878,0,0,1-.686.416c-.124.059-.283.084-.34.2s.03.386.05.531a8.842,8.842,0,0,1-.1,3.81,5.265,5.265,0,0,1-2.086,2.8,6.492,6.492,0,0,1-6.489.184,6.81,6.81,0,0,1-1.449-1c-1.111,1.5-3.4,1.449-5.022,1.022A7.214,7.214,0,0,1,70.39,62.45a3.053,3.053,0,0,1-4.851-.637,4.041,4.041,0,0,1-.409-1.33c-.033-.242-.012-.487-.037-.728a3.76,3.76,0,0,0-.354-.9,4.973,4.973,0,0,1-.378-1.8,9.107,9.107,0,0,1,.069-.964,3.315,3.315,0,0,0-.1-.847,3.875,3.875,0,0,0,1.64-.2,3.239,3.239,0,0,0,1.268-.892,7.4,7.4,0,0,0,1.6-2.982c.721-2.362.426-5.2-1.95-6.492-1.107-.6-4.422-.6-5.74-.3-1.386.314-2.957,3.372-3.034,3.659-.048.178-.024.4-.187.517-.359.261-.951-.192-1.216-.415a4.8,4.8,0,0,1-1.066-1.418,17.541,17.541,0,0,1-1.462-3.585c-.27-.955-.443-1.941-.8-2.872a4.393,4.393,0,0,0-1.766-2.279,15.556,15.556,0,0,0-3.039-1.23,7.544,7.544,0,0,1-2.812-1.545,3.89,3.89,0,0,1-.482-.538c-.11-.154-.219-.449-.388-.547-.261-.152-.643.243-.869.387a10.047,10.047,0,0,0-2.8,2.776,17.273,17.273,0,0,0-1.857,3.306,9.56,9.56,0,0,1-1.249,2.757,5.27,5.27,0,0,1-3.143.238A3.972,3.972,0,0,1,33.265,42.1a2.3,2.3,0,0,1-.194-1.511c.06-.3.183-.589.25-.889a2.773,2.773,0,0,1,.231-.719,1.773,1.773,0,0,1,1.106-.881,5.193,5.193,0,0,1-1.2-1.62,6.97,6.97,0,0,1-.618-2.111,2.563,2.563,0,0,1,.342-1.644,4.334,4.334,0,0,1,1.4-1.165,9.138,9.138,0,0,1-1.954-2.128A6.643,6.643,0,0,1,31.476,24.03Z" transform="translate(-31.287 -14.601)" fill="#191847" fill-rule="evenodd"/>
    </g>
    <g id="Bottom_Standing_Skinny-Jeans-Walk" data-name="Bottom/Standing/Skinny-Jeans-Walk" transform="translate(0 145.966)">
      <path id="Leg" d="M218.83,0,178.2,107.5l-28.476,79.233H133.491L172.634,0Z" transform="translate(-99.693)" fill="#1f28cf" fill-rule="evenodd"/>
      <path id="Leg-2" data-name="Leg" d="M95.5,0c.442,36.885.122,86.545,1.151,88.845q1.029,2.3,64.008,52.394l-8.369,14.231q-74.771-48.218-78.593-54.642C69.87,94.4,50.665,35.287,40.673,0Z" transform="translate(33.682)" fill="#2b44ff" fill-rule="evenodd"/>
      <g id="Accessories_Shoe_Flat-Pointy" data-name="Accessories/Shoe/Flat-Pointy" transform="matrix(-0.643, 0.766, -0.766, -0.643, 209.061, 150.815)">
        <path id="Shoe" d="M0,0,.845,17.744H18.589Q31.209,8.872,51.541,3.38V0H19.434L8.449,1.69V0Z" transform="translate(0 0)" fill="#dde3e9" fill-rule="evenodd"/>
      </g>
      <g id="Accessories_Shoe_Flat-Pointy-2" data-name="Accessories/Shoe/Flat-Pointy" transform="translate(0 184.198)">
        <path id="Shoe-2" data-name="Shoe" d="M51.542,37.559,50.7,19.815H32.953Q20.332,28.687,0,34.179v3.38H32.108l10.984-1.69v1.69Z" transform="translate(0 -19.815)" fill="#dde3e9" fill-rule="evenodd"/>
      </g>
    </g>
    <g id="Body_Hoodie" data-name="Body/Hoodie" transform="translate(1.12 54.396)">
      <path id="Skin" d="M82.027,96.167,55.075,115.958a72.552,72.552,0,0,0-18.322,7.363c-1.159,1.056-2.559,3.193,2.247,2.824s9.875-.542,10.538,1.1-2.245,3.6-.9,5.81q1.34,2.211,12.662-11.089L87.985,110.9Zm103.483.683-17.657.069q16.354,52.792,17.657,56.022c1.955,4.846-2.182,12.225-3.952,16.191,5.763,2.579,5.149-6.971,12.418-3.589,6.635,3.087,11.682,8.68,19.348,3.95.943-.581,1.975-2.771-.52-4.482-6.217-4.262-15.176-11.723-16.386-14.179Q193.942,145.808,185.51,96.85Z" transform="translate(-35.628 -15.285)" fill="#b28b67" fill-rule="evenodd"/>
      <path id="Coat-Back" d="M0,94.346l7.169,1.885c29.047-20.966,44.06-64.813,79.239-85.658L79.3,0C21.257,2.086,2.241,55.507,0,94.346Z" transform="translate(107.927 101.461) rotate(175)" fill="#e87613" fill-rule="evenodd"/>
      <path id="Shirt" d="M160.822,96.323H96.174c-2.954,0-2.4-4.266-1.97-6.418,4.928-24.841,24.167-51.619,24.167-86.981L137.018,0C152.443,24.806,157.776,55.348,160.822,96.323Z" transform="translate(-29.269 2.968)" fill="#dde3e9" fill-rule="evenodd"/>
      <path id="Coat-Front" d="M104.018,23.688a10.665,10.665,0,0,0,6.434-5.447c6.816-12.3,4.354-19.069-2.93-21.3S93.743-.7,82.137-.7A11.672,11.672,0,0,0,80.4-.577l-5.838.333Q49.443,84.9,60.708,113.372h50.883a173.551,173.551,0,0,0,8.655,17.744H134.11Q136.067,67.83,104.018,23.688Z" transform="translate(27.016 3.664)" fill="#ff9b21" fill-rule="evenodd"/>
      <path id="Shade" d="M92.957,104.809q-2.4,20.084-7.8,29.152h18.883Q98.762,121.661,92.957,104.809Z" transform="translate(34.57 -16.925)" fill="rgba(0,0,0,0.1)" fill-rule="evenodd"/>
    </g>
  </g>
</svg>
